<svg xmlns="http://www.w3.org/2000/svg" width="1085.82" height="171.943" viewBox="0 0 1085.82 171.943"><path fill="#313130" d="M475.02 53.77c-6.533 1.833-13.033 3.566-19.5 5.2-2.8.633-5.316 2.033-7.55 4.2-.132.065-.132.267 0 .6.8 6.1 1.884 12.15 3.25 18.15.634 2.73 1.768 5.283 3.4 7.648 15.034.268 28.833-3.683 41.4-11.85.566-.367 1.133-.767 1.7-1.2 2.566-2.133 4.667-4.75 6.3-7.85 1.3-2.4 2.25-4.967 2.85-7.7l-3.35-4.9c-1.267-.433-2.55-.883-3.85-1.35-3.968-1.267-8-2.117-12.1-2.55-4.2-.132-8.383.4-12.55 1.602zm-40.8-15.2c2.8-.634 5.583-1.45 8.35-2.45 18.268-6.566 36.934-8.434 56-5.6 10.333 1.767 19.05 6.45 26.15 14.05 3.033 3.232 4.732 7.082 5.1 11.55.867 10.732-2.1 20.2-8.9 28.4l-12.2 14.9c1.6 2.365 3.584 4.397 5.95 6.1 17.4 12.267 33.7 25.45 48.9 39.55.7.634 1.467 1.217 2.3 1.75 5.233 3.032 6.534 7.066 3.9 12.1-1.8 3.468-4.333 6.35-7.6 8.65-5.4 2.332-10.435 1.134-15.1-3.6-8.334-8.5-17.067-16.484-26.2-23.95-2.533-2.134-5.184-4.268-7.95-6.4-11.435-9.1-24.367-15.268-38.8-18.5-3-.7-5.834-.3-8.5 1.2-1.334.866-2.65 1.816-3.95 2.85 1.532 6.066 3 12.232 4.4 18.5.732 3.2.65 6.35-.25 9.45-1.334 4.634-3.817 8.5-7.45 11.6-4.168-.1-7.967-1.4-11.4-3.9-1.733-1.132-2.684-2.73-2.85-4.8-1.967-18.966-5.1-37.716-9.4-56.25-.7-3.1-1.283-6.25-1.75-9.45-.934-6.632-3.883-16.082-8.85-28.35-.5-1.066-.934-2.116-1.3-3.15-.334-1-.368-2.03-.1-3.1 1.4-5.833 5.234-9.55 11.5-11.15zm-49.35-12.2c1.268 2.133 1.85 4.666 1.75 7.6 0 .233-.1.483-.3.75-14.2 6.633-29 11.717-44.4 15.25-4.7 1.066-9.35 2.35-13.95 3.85-2.767.867-5.517 1.733-8.25 2.602-1.3 6.267-1.032 12.717.8 19.35.5 1.833 1.368 3.55 2.6 5.15.868 1 2 1.866 3.4 2.6 15-3.4 29.6-7.85 43.8-13.35 1.568-.667 3.15-1.334 4.75-2 3.968-1.7 7.818-1.55 11.55.45 3.668 2.03 6.535 5 8.602 8.898-4.033 8.8-11.066 14.185-21.1 16.15-2.668.5-5.217 1.398-7.65 2.7-4.867 2.633-10 4.683-15.4 6.148-4.433 1.1-8.9 2.3-13.4 3.6-3.532.968-7.032 2.02-10.5 3.15.134 4.8.733 9.6 1.8 14.4.4 1.533.7 3.083.9 4.648.333 3.102 1.8 5.367 4.4 6.8 18.566-2.467 36.033-7.85 52.4-16.148 1.433-.733 2.967-1.184 4.6-1.35 6.033.133 9.767 2.698 11.2 7.698.3 1.167.383 2.417.25 3.75-.566 5.033-3.333 8.435-8.3 10.2-7.233 7.367-16.134 11.967-26.7 13.8-4.967.7-9.833 1.852-14.6 3.45-10.668 3.667-21.65 5.816-32.95 6.45-4.067-4.733-6.85-10.2-8.35-16.4-2.6-10.5-4.384-21.25-5.35-32.25-.77-8.467-1.834-16.865-3.2-25.2-.435-2.5-.884-4.967-1.35-7.398-.47-2.467-.936-4.95-1.4-7.45-.568-2.434-1.134-4.867-1.7-7.3-.734-3.3-1.468-6.617-2.2-9.95-.567-2.667-.85-5.35-.85-8.05 0-1.167-.068-2.317-.2-3.45-.334-2.033-.368-4.033-.102-6 .233-1.6.9-3.05 2-4.35 2.3-.935 4.65-1.834 7.05-2.7 2.534-.9 5.084-1.717 7.65-2.45 7-1.833 14.934-3.05 23.8-3.65 1.435-.332 2.85-.648 4.25-.948 12.3-2.667 24.8-4.3 37.5-4.9 3.3 1.433 5.684 3.382 7.15 5.85zm-110.85 70.5c7 10.23 8.983 21.35 5.95 33.35-.933 3.866-2.767 7.183-5.5 9.95-8.065 8.033-16.75 15.283-26.05 21.75-1.667 1.166-3.45 2.133-5.35 2.898-14.4 6.102-29.433 8.283-45.1 6.55-6-.433-11.733-1.915-17.2-4.448-1.833-.834-3.983-2.134-6.45-3.9-2.833-6.4-4.45-11.617-4.85-15.65-.667-6.267-1.833-13.082-3.5-20.448-4.934-21.733-9.684-43.5-14.25-65.3-.934-4.4-2.134-8.983-3.6-13.75-1.534-4.733-2.15-9.352-1.85-13.852.332-4.533 2.064-7.283 5.2-8.25 3.065-.967 6.648-1.982 10.75-3.05 4.166-1.067 9-1.95 14.5-2.65 7.198-.565 14.433-1.167 21.698-1.8 1.468-.1 2.917-.217 4.35-.35 6.3-.667 12.45-.384 18.45.85.7.167 1.384.316 2.05.45 2.368.733 4.717 1.517 7.05 2.35 2.334.935 4.5 2.102 6.5 3.5 2.334 1.468 4.35 3.468 6.05 6 1.4 2.033 2.618 4.333 3.65 6.9 2.434 6.167 3.066 12.883 1.9 20.15-.232 1.433-.732 2.8-1.5 4.1-2.467 4.5-5.017 8.95-7.65 13.35 11.066 4.167 21.233 9.833 30.5 17 1.67 1.2 3.086 2.633 4.253 4.3zm-57.4-53.9c-7.167-1.167-14.433-1.317-21.8-.45-5.9.467-11.833 1.233-17.8 2.3-1.8.268-3.583.567-5.35.9l9.25 40.75c11.1-4.634 21.916-9.967 32.45-16 .966-.5 1.85-1.117 2.65-1.85.832-.7 1.648-1.417 2.45-2.15.166-.067.315-.167.448-.3 7.367-6.435 8.3-13.15 2.8-20.15-1.098-1.467-2.798-2.484-5.098-3.05zm-30 64.55l6.8 38c2.367.3 4.7.633 7 1 14.733.733 28.533-2.482 41.4-9.65 8.867-4.832 13.533-11.948 14-21.35.133-1.934-.433-3.65-1.7-5.15-5.367-6.267-12.05-9.183-20.05-8.75-13.767.335-27.317 1.835-40.65 4.5-2.266.5-4.533.966-6.8 1.4zm617.3-84.05c9.802 2.267 19.034 5.866 27.7 10.8 3.3 1.867 6.102 4.35 8.4 7.45 6.9 9.467 11.133 20.066 12.7 31.8.2 1.268.267 2.566.2 3.9-.4 7.767-2.617 14.916-6.65 21.45-6.367 10.267-14.15 19.198-23.35 26.8-8.167 6.767-17.317 11.083-27.45 12.95-6.233 1-12.3.48-18.2-1.552-8.7-2.967-15.834-8.25-21.4-15.85-4.3-5.867-7.967-12.167-11-18.9-3.398-7.467-5.684-15.3-6.85-23.5-1-8.398 2.333-14.1 10-17.1 3.533-1.533 7.267-2.617 11.2-3.25 4.1-11.867 10.767-21.783 20-29.75 1.565-1.333 3.366-2.434 5.398-3.3 6.236-2.698 12.67-3.35 19.303-1.948zm-1.65 23.85c-7.8 2.232-14.05 6.832-18.75 13.8-2.565 3.732-4.95 7.532-7.15 11.4-7.564 3.5-10.8 9.565-9.698 18.2 1.434 10.766 6.9 18.565 16.4 23.398 1.832 1 3.8 1.75 5.9 2.25 12.766-3.066 23.665-9.1 32.698-18.1 5.167-5.233 7.8-11.5 7.9-18.8.2-11.734-4.7-20.685-14.7-26.852-3.933-2.497-8.133-4.263-12.6-5.297zm-127.85-5.4c10.768 24.933 21.2 44.217 31.302 57.85 1.8 2.4 3.5 4.917 5.1 7.55 7.066 11.3 14.566 22.317 22.5 33.05 1.066 1.435 1.616 3.085 1.65 4.95.033 5.067-1.717 9.367-5.25 12.9-2.867 2.866-6.2 5.05-10 6.55-7.102-3.633-12.067-9.184-14.9-16.65-3.6-9.467-8.184-18.415-13.75-26.85-1.533-2.367-2.934-4.75-4.2-7.15-.633-1.267-1.2-2.55-1.7-3.85-1.665-4.167-3.898-8.033-6.698-11.6-3-3.733-5.917-7.533-8.75-11.4-2.9-3.934-5.867-7.783-8.9-11.55-3.6 3.733-5.3 7.8-5.1 12.2v1.55c-.133 2-.684 3.65-1.65 4.95-11.9 15.898-23.267 14-34.1-5.7-.167-.3-.383-.583-.65-.85-6-7.435-12.316-14.5-18.95-21.2-.8-.8-1.667-1.467-2.6-2-1 1.633-1.767 3.416-2.3 5.35-.733 3.967-1.2 7.967-1.4 12-.333 9.6-1.533 19.066-3.6 28.4-.467 1.933-1.033 3.815-1.7 5.648-1.8 5.2-5.534 8.283-11.2 9.25-3.767.635-6.75-.833-8.95-4.398-1.267-2.167-2.366-4.417-3.3-6.75-1.5-2.602-1.7-5.217-.6-7.852 3.133-7.267 5.383-14.85 6.75-22.75 1.467-8.433 2.4-16.967 2.8-25.6l.1-3.7c.2-4.232.25-8.467.15-12.7-.067-2.467.816-4.532 2.65-6.2 2.5-2.3 5.333-4.017 8.5-5.148 3.3-1.233 6.482-1.583 9.55-1.05 1.533.166 2.75.85 3.65 2.05 9.8 12.2 20.217 23.833 31.25 34.9 1.6 1.633 3.482 2.698 5.65 3.198 6.9-10.433 11.832-21.717 14.8-33.85.632-2.7 2.2-4.833 4.7-6.4 1.3-.865 2.632-1.648 4-2.35 6.5.566 11.032 3.95 13.6 10.15.63 1.635 1.147 3.32 1.547 5.052zM922.92.27c1.9-.3 3.784-.35 5.65-.15 1.7.135 3.333.585 4.9 1.352.966.5 2.232 1.066 3.8 1.7 1.6.666 3.717 2.315 6.35 4.95 2.602 2.666 4.852 5.767 6.75 9.3 1.834 3.533 1.033 8.148-2.398 13.85-1.8 2.935-4.467 4.566-8 4.9-1.167-.033-2.284-.435-3.352-1.2-3.467-2.6-6.95-5.217-10.45-7.85-7.365 4.267-12.183 10.53-14.448 18.8-.2.73-.217 1.533-.05 2.398 3 12.268 8.85 22.968 17.55 32.102.866.933 1.767 1.833 2.7 2.7 1.666 1.633 3.032 3.53 4.1 5.698 1.4 2.768 2.9 5.468 4.5 8.102 6.6 10.565 10.383 21.933 11.35 34.1.233 2.935-.184 5.783-1.25 8.55-4.6 11.8-12.782 19.885-24.55 24.25-14.232 5.435-28.1 4.718-41.6-2.148-4.768-2.435-9.018-5.483-12.75-9.15-2.102-2.2-4.134-4.45-6.102-6.75-.732-.866-1.315-1.8-1.75-2.8-2.767-6.033-2.75-11.85.05-17.45 1.102-2.333 2.867-3.95 5.302-4.85 3.033-1.134 6.05-1.2 9.05-.2.666 8.167 4.8 14.184 12.4 18.05 10.166 5.134 20.365 5.134 30.6 0 1.333-.7 2.35-1.767 3.05-3.2 2.3-4.065 2.6-8.3.9-12.7-6.733-16.73-15.817-32.115-27.25-46.148-1.9-2.3-3.567-4.732-5-7.3-5.834-10.533-7.45-21.55-4.852-33.05 2.602-11.667 8.316-21.067 17.15-28.2C911.804 3.62 917.687 1.07 922.92.27zm152.6 11c5.435 4.133 8.867 9.583 10.3 16.35l-.85 1.45c-12.333 3.733-24.732 7.4-37.2 11-11.133 3.333-22.016 7.333-32.648 12 4.267 16.9 7.634 34.05 10.1 51.45l1 7.6c.2 1.802.684 3.52 1.45 5.15.434.867.534 1.768.3 2.7-1.533 7.133-5.583 12.083-12.15 14.85-2.898 1.233-5.55.9-7.95-1-1.897-1.5-3.183-3.467-3.85-5.898-1.565-5.033-2.75-10.134-3.55-15.3-.366-2.635-.6-5.352-.7-8.15-.433-14.767-2.416-29.317-5.95-43.65-9.064 3.268-18.183 6.268-27.35 9-1.267.4-2.566.367-3.9-.1-2.1-.7-4.032-1.783-5.8-3.25-1.833-1.533-3.4-3.417-4.7-5.65-3.23-5.633-2.1-9.85 3.4-12.648 1.367-.634 2.784-1.217 4.25-1.75 15.434-4.2 30.45-9.602 45.05-16.2 4-1.8 8.02-3.533 12.05-5.2 11.734-4.767 23.668-8.867 35.8-12.3 6.534-1.934 13.2-2.517 20-1.75 1.065.196 2.03.63 2.9 1.296zM123.57 55.92c-.967 8.267-2.167 16.5-3.6 24.7-1.167 7.198-2.7 14.365-4.6 21.5-2.2 8.6-5.6 16.565-10.2 23.898-7.233 12.033-16 22.9-26.3 32.6-5.6 5.233-12.018 9.02-19.25 11.352-9.6 2.9-18.084.9-25.45-6-7.7-7.2-14.1-15.367-19.2-24.5-5.468-9.567-8.983-19.833-10.55-30.8-.3-2.367-.617-4.7-.95-7-1.434-8.867-2.468-17.7-3.1-26.5-.566-8.2-.483-16.384.25-24.55.734-7.7 2.184-15.267 4.35-22.7.4-1.467.883-2.917 1.45-4.352 2-3.565 5.482-4.967 10.45-4.2 1.132.233 2.132.77 3 1.602 4.434 4.533 6.2 10.017 5.3 16.45-1.1 7.166-1.768 14.398-2 21.7-.533 13.433.3 26.73 2.5 39.898 1.9 11.435 5.933 22.033 12.1 31.8 3.732 5.935 8.417 10.983 14.05 15.15 9.733-2.533 17.533-7.817 23.4-15.85 4.434-6.102 8.684-12.334 12.75-18.7 4.4-6.9 7.217-14.367 8.45-22.4 1.732-11.133 1.933-22.283.6-33.45-.333-2.833-.85-5.565-1.55-8.2-1.6-5.6-.968-10.5 1.9-14.698.3-.4.7-.717 1.2-.95 8.032-2.867 14.732-.983 20.1 5.65 1.767 2.23 2.95 4.78 3.55 7.648.8 3.67 1.25 7.3 1.35 10.902z"/></svg>