<?xml version="1.0" encoding="utf-8"?>
<!-- Generator: Adobe Illustrator 16.0.0, SVG Export Plug-In . SVG Version: 6.00 Build 0)  -->
<!DOCTYPE svg PUBLIC "-//W3C//DTD SVG 1.1//EN" "http://www.w3.org/Graphics/SVG/1.1/DTD/svg11.dtd">
<svg version="1.1" id="Selected_Items" xmlns="http://www.w3.org/2000/svg" xmlns:xlink="http://www.w3.org/1999/xlink" x="0px"
	 y="0px" width="1085.82px" height="171.943px" viewBox="0 0 1085.82 171.943" enable-background="new 0 0 1085.82 171.943"
	 xml:space="preserve">
<path fill="#313130" d="M475.021,53.77c-6.534,1.833-13.034,3.566-19.5,5.2c-2.8,0.633-5.317,2.033-7.55,4.2
	c-0.133,0.065-0.133,0.267,0,0.6c0.8,6.101,1.883,12.15,3.25,18.15c0.633,2.731,1.767,5.283,3.399,7.648
	c15.034,0.268,28.833-3.683,41.4-11.85c0.566-0.367,1.133-0.767,1.7-1.2c2.566-2.133,4.667-4.75,6.3-7.85
	c1.3-2.4,2.25-4.967,2.85-7.7l-3.35-4.9c-1.267-0.433-2.55-0.883-3.85-1.35c-3.968-1.267-8-2.117-12.101-2.55
	C483.37,52.036,479.187,52.569,475.021,53.77z M434.22,38.569c2.8-0.633,5.583-1.449,8.35-2.449c18.268-6.566,36.934-8.434,56-5.601
	c10.333,1.768,19.05,6.45,26.15,14.05c3.033,3.233,4.732,7.083,5.1,11.551c0.867,10.732-2.1,20.199-8.899,28.399
	c-4.067,4.967-8.134,9.935-12.2,14.9c1.6,2.366,3.583,4.398,5.95,6.1c17.399,12.268,33.699,25.45,48.899,39.55
	c0.7,0.635,1.467,1.218,2.3,1.75c5.233,3.033,6.534,7.067,3.9,12.102c-1.8,3.467-4.333,6.35-7.6,8.648
	c-5.4,2.333-10.435,1.135-15.101-3.6c-8.333-8.5-17.066-16.483-26.2-23.95c-2.532-2.133-5.183-4.267-7.949-6.399
	c-11.435-9.101-24.367-15.268-38.801-18.5c-3-0.699-5.833-0.301-8.5,1.199c-1.333,0.867-2.649,1.817-3.949,2.852
	c1.532,6.065,3,12.231,4.399,18.5c0.733,3.199,0.65,6.35-0.25,9.449c-1.333,4.634-3.816,8.5-7.45,11.601
	c-4.167-0.101-7.966-1.4-11.399-3.9c-1.733-1.133-2.684-2.732-2.851-4.8c-1.966-18.967-5.1-37.717-9.399-56.25
	c-0.7-3.1-1.283-6.25-1.75-9.45c-0.934-6.633-3.883-16.083-8.851-28.35c-0.5-1.067-0.933-2.117-1.3-3.15
	c-0.333-1-0.367-2.032-0.1-3.1C424.12,43.887,427.954,40.17,434.22,38.569z M384.87,26.369c1.268,2.134,1.851,4.667,1.75,7.601
	c0,0.233-0.1,0.483-0.3,0.75c-14.2,6.633-29,11.717-44.399,15.25c-4.7,1.066-9.351,2.35-13.95,3.85
	c-2.768,0.867-5.518,1.733-8.25,2.602c-1.3,6.267-1.033,12.717,0.8,19.35c0.5,1.833,1.367,3.55,2.6,5.15c0.867,1,2,1.866,3.4,2.6
	c15-3.399,29.6-7.85,43.8-13.35c1.567-0.667,3.15-1.334,4.75-2c3.967-1.7,7.817-1.551,11.55,0.449c3.667,2.032,6.534,5,8.601,8.899
	c-4.033,8.8-11.066,14.185-21.101,16.15c-2.667,0.5-5.216,1.398-7.649,2.699c-4.867,2.634-10,4.684-15.4,6.149
	c-4.433,1.101-8.899,2.3-13.399,3.601c-3.533,0.967-7.033,2.018-10.5,3.149c0.133,4.8,0.732,9.601,1.8,14.4
	c0.399,1.533,0.7,3.083,0.899,4.648c0.333,3.102,1.801,5.367,4.4,6.801c18.566-2.468,36.033-7.851,52.4-16.149
	c1.433-0.733,2.967-1.184,4.6-1.351c6.033,0.134,9.767,2.699,11.2,7.699c0.3,1.167,0.383,2.417,0.25,3.75
	c-0.566,5.033-3.333,8.435-8.3,10.2c-7.233,7.367-16.134,11.967-26.7,13.8c-4.967,0.7-9.833,1.852-14.601,3.45
	c-10.667,3.667-21.649,5.816-32.949,6.45c-4.067-4.733-6.851-10.2-8.351-16.4c-2.6-10.5-4.383-21.25-5.35-32.25
	c-0.768-8.467-1.833-16.865-3.2-25.199c-0.434-2.5-0.883-4.968-1.35-7.399c-0.468-2.467-0.935-4.95-1.4-7.45
	c-0.567-2.434-1.133-4.867-1.7-7.3c-0.733-3.3-1.467-6.617-2.2-9.95c-0.566-2.667-0.85-5.35-0.85-8.05c0-1.167-0.067-2.317-0.2-3.45
	c-0.333-2.033-0.367-4.033-0.101-6c0.233-1.6,0.9-3.05,2-4.35c2.301-0.935,4.65-1.834,7.051-2.7c2.533-0.9,5.083-1.717,7.649-2.45
	c7-1.833,14.934-3.05,23.801-3.649c1.434-0.333,2.85-0.649,4.25-0.949c12.3-2.667,24.8-4.301,37.5-4.9
	C381.021,21.953,383.404,23.902,384.87,26.369z M274.021,96.869c7,10.232,8.982,21.351,5.95,33.351
	c-0.934,3.866-2.768,7.183-5.5,9.95c-8.066,8.033-16.75,15.283-26.051,21.75c-1.667,1.166-3.449,2.133-5.35,2.898
	c-14.4,6.102-29.433,8.283-45.1,6.551c-6-0.434-11.733-1.916-17.2-4.449c-1.833-0.834-3.983-2.134-6.45-3.9
	c-2.833-6.399-4.45-11.617-4.85-15.649c-0.667-6.268-1.833-13.083-3.5-20.449c-4.934-21.733-9.684-43.5-14.25-65.301
	c-0.934-4.399-2.134-8.982-3.601-13.75c-1.533-4.732-2.149-9.351-1.85-13.851c0.333-4.533,2.065-7.283,5.2-8.25
	c3.066-0.967,6.649-1.982,10.75-3.05c4.167-1.067,9-1.95,14.5-2.65c7.199-0.565,14.434-1.167,21.699-1.8
	c1.468-0.1,2.917-0.217,4.351-0.35c6.3-0.667,12.45-0.384,18.45,0.85c0.699,0.167,1.383,0.316,2.05,0.45
	c2.367,0.733,4.716,1.517,7.05,2.35c2.333,0.935,4.5,2.102,6.5,3.5c2.333,1.468,4.35,3.468,6.05,6c1.4,2.033,2.617,4.333,3.65,6.9
	c2.433,6.167,3.065,12.883,1.899,20.149c-0.232,1.434-0.732,2.801-1.5,4.101c-2.467,4.5-5.017,8.95-7.649,13.35
	c11.065,4.167,21.232,9.833,30.5,17C271.437,93.77,272.854,95.203,274.021,96.869z M216.62,42.97
	c-7.167-1.167-14.433-1.317-21.8-0.45c-5.9,0.467-11.833,1.233-17.8,2.3c-1.8,0.268-3.583,0.567-5.351,0.9l9.25,40.75
	c11.101-4.634,21.917-9.967,32.45-16c0.967-0.5,1.851-1.117,2.65-1.851c0.833-0.699,1.649-1.416,2.45-2.149
	c0.167-0.067,0.316-0.167,0.449-0.3c7.367-6.435,8.301-13.15,2.801-20.15C220.62,44.553,218.92,43.536,216.62,42.97z M186.62,107.52
	l6.8,38c2.367,0.3,4.7,0.633,7,1c14.733,0.733,28.533-2.482,41.4-9.649c8.867-4.833,13.533-11.949,14-21.351
	c0.133-1.934-0.433-3.649-1.7-5.149c-5.367-6.268-12.05-9.184-20.05-8.75c-13.767,0.334-27.317,1.834-40.65,4.5
	C191.154,106.619,188.887,107.086,186.62,107.52z M803.921,23.47c9.801,2.267,19.033,5.866,27.699,10.8
	c3.301,1.867,6.102,4.351,8.4,7.45c6.899,9.467,11.133,20.066,12.7,31.8c0.199,1.268,0.267,2.566,0.199,3.9
	c-0.399,7.767-2.616,14.916-6.649,21.449c-6.367,10.268-14.15,19.199-23.351,26.801c-8.166,6.767-17.316,11.083-27.449,12.949
	c-6.233,1-12.301,0.482-18.2-1.551c-8.7-2.967-15.834-8.25-21.4-15.85c-4.3-5.867-7.967-12.167-11-18.9
	c-3.398-7.467-5.684-15.3-6.85-23.5c-1-8.398,2.333-14.1,10-17.1c3.533-1.533,7.267-2.617,11.2-3.25
	c4.1-11.867,10.767-21.783,20-29.75c1.565-1.333,3.366-2.434,5.398-3.3C790.854,22.72,797.287,22.069,803.921,23.47z
	 M802.271,47.319c-7.8,2.233-14.05,6.833-18.75,13.801c-2.566,3.732-4.95,7.532-7.15,11.399c-7.565,3.5-10.8,9.566-9.699,18.2
	c1.434,10.767,6.899,18.566,16.399,23.399c1.833,1,3.8,1.75,5.9,2.25c12.767-3.066,23.666-9.101,32.699-18.101
	c5.167-5.232,7.801-11.5,7.899-18.8c0.2-11.733-4.7-20.684-14.7-26.851C810.937,50.119,806.737,48.353,802.271,47.319z
	 M674.421,41.92c10.767,24.933,21.199,44.217,31.301,57.85c1.8,2.4,3.5,4.917,5.1,7.55c7.066,11.301,14.566,22.317,22.5,33.051
	c1.066,1.434,1.616,3.084,1.65,4.949c0.033,5.067-1.717,9.367-5.25,12.9c-2.867,2.866-6.2,5.05-10,6.55
	c-7.102-3.633-12.067-9.184-14.9-16.649c-3.6-9.468-8.184-18.416-13.75-26.851c-1.533-2.367-2.934-4.75-4.2-7.149
	c-0.633-1.268-1.199-2.551-1.699-3.851c-1.666-4.167-3.899-8.033-6.699-11.6c-3-3.733-5.917-7.533-8.75-11.4
	c-2.9-3.934-5.867-7.783-8.9-11.55c-3.6,3.733-5.3,7.8-5.1,12.2c0,0.5,0,1.017,0,1.55c-0.133,2-0.684,3.649-1.65,4.95
	c-11.899,15.898-23.267,14-34.1-5.7c-0.167-0.3-0.383-0.583-0.65-0.851c-6-7.434-12.316-14.5-18.95-21.199
	c-0.8-0.801-1.667-1.467-2.6-2c-1,1.633-1.767,3.416-2.3,5.35c-0.733,3.967-1.2,7.967-1.4,12c-0.333,9.601-1.533,19.066-3.6,28.4
	c-0.467,1.933-1.033,3.815-1.7,5.648c-1.8,5.2-5.534,8.283-11.2,9.25c-3.767,0.635-6.75-0.833-8.95-4.398
	c-1.267-2.167-2.366-4.417-3.3-6.75c-1.5-2.602-1.7-5.217-0.6-7.852c3.133-7.267,5.383-14.85,6.75-22.75
	c1.467-8.433,2.399-16.967,2.8-25.6l0.1-3.7c0.2-4.232,0.25-8.467,0.15-12.7c-0.067-2.467,0.816-4.532,2.65-6.199
	c2.5-2.301,5.333-4.018,8.5-5.149c3.3-1.233,6.482-1.583,9.55-1.05c1.533,0.166,2.75,0.85,3.649,2.05
	c9.801,12.2,20.218,23.833,31.25,34.899c1.601,1.634,3.483,2.699,5.65,3.199c6.9-10.433,11.833-21.717,14.8-33.85
	c0.633-2.7,2.2-4.833,4.7-6.4c1.3-0.865,2.633-1.648,4-2.35c6.5,0.566,11.033,3.95,13.6,10.149
	C673.504,38.503,674.021,40.187,674.421,41.92z M922.921,0.27c1.899-0.3,3.783-0.35,5.649-0.149c1.7,0.134,3.333,0.584,4.9,1.351
	c0.966,0.5,2.232,1.066,3.8,1.7c1.6,0.666,3.717,2.315,6.35,4.949c2.602,2.667,4.852,5.768,6.75,9.301
	c1.834,3.533,1.033,8.148-2.398,13.85c-1.801,2.935-4.467,4.566-8,4.9c-1.167-0.033-2.284-0.435-3.352-1.2
	c-3.467-2.601-6.949-5.217-10.449-7.851c-7.366,4.268-12.184,10.532-14.449,18.801c-0.2,0.731-0.217,1.533-0.051,2.398
	c3,12.268,8.851,22.968,17.551,32.102c0.866,0.933,1.767,1.833,2.699,2.699c1.667,1.634,3.033,3.532,4.101,5.699
	c1.399,2.768,2.899,5.468,4.5,8.102c6.6,10.565,10.383,21.933,11.35,34.1c0.233,2.935-0.184,5.783-1.25,8.55
	c-4.6,11.801-12.782,19.885-24.55,24.25c-14.232,5.435-28.1,4.718-41.6-2.148c-4.768-2.435-9.018-5.483-12.75-9.15
	c-2.102-2.199-4.134-4.449-6.102-6.75c-0.732-0.866-1.315-1.8-1.75-2.8c-2.767-6.033-2.75-11.851,0.051-17.45
	c1.101-2.333,2.866-3.949,5.301-4.85c3.033-1.134,6.05-1.2,9.05-0.2c0.666,8.167,4.8,14.184,12.399,18.05
	c10.167,5.134,20.366,5.134,30.601,0c1.333-0.699,2.35-1.767,3.05-3.199c2.3-4.066,2.601-8.301,0.9-12.7
	c-6.733-16.732-15.817-32.116-27.25-46.149c-1.9-2.3-3.567-4.732-5-7.3c-5.834-10.533-7.45-21.551-4.852-33.051
	c2.602-11.666,8.316-21.066,17.15-28.199C911.804,3.619,917.687,1.069,922.921,0.27z M1075.521,11.27
	c5.434,4.133,8.866,9.583,10.3,16.351l-0.85,1.449c-12.334,3.733-24.733,7.4-37.2,11c-11.134,3.333-22.017,7.333-32.649,12
	c4.267,16.9,7.634,34.051,10.101,51.45c0.333,2.533,0.666,5.066,1,7.601c0.199,1.801,0.683,3.518,1.449,5.149
	c0.434,0.867,0.534,1.768,0.301,2.7c-1.534,7.133-5.584,12.083-12.15,14.85c-2.899,1.233-5.55,0.9-7.95-1
	c-1.898-1.5-3.184-3.467-3.85-5.898c-1.566-5.033-2.75-10.134-3.55-15.301c-0.367-2.634-0.602-5.351-0.7-8.149
	c-0.434-14.767-2.417-29.317-5.95-43.65c-9.065,3.268-18.184,6.268-27.35,9c-1.268,0.4-2.567,0.367-3.9-0.1
	c-2.1-0.7-4.033-1.783-5.8-3.25c-1.834-1.533-3.4-3.417-4.7-5.65c-3.232-5.633-2.1-9.85,3.4-12.648
	c1.366-0.634,2.783-1.217,4.25-1.75c15.433-4.2,30.449-9.602,45.05-16.2c4-1.8,8.018-3.533,12.05-5.2
	c11.733-4.767,23.667-8.867,35.8-12.3c6.533-1.934,13.2-2.517,20-1.75C1073.687,10.17,1074.653,10.603,1075.521,11.27z
	 M123.57,55.92c-0.967,8.267-2.167,16.5-3.6,24.699c-1.167,7.199-2.7,14.366-4.601,21.5c-2.2,8.601-5.6,16.566-10.2,23.899
	c-7.232,12.033-16,22.9-26.3,32.601c-5.6,5.232-12.017,9.018-19.25,11.351c-9.6,2.899-18.083,0.899-25.45-6
	c-7.699-7.2-14.1-15.367-19.199-24.5c-5.468-9.567-8.983-19.833-10.551-30.8c-0.3-2.367-0.616-4.7-0.949-7
	c-1.434-8.867-2.468-17.7-3.101-26.5c-0.565-8.2-0.482-16.384,0.25-24.551C1.354,42.92,2.804,35.353,4.97,27.92
	c0.399-1.467,0.883-2.917,1.449-4.352c2-3.565,5.483-4.967,10.45-4.199c1.133,0.232,2.133,0.768,3,1.601
	c4.435,4.533,6.2,10.017,5.3,16.45c-1.1,7.166-1.767,14.398-2,21.699c-0.532,13.434,0.301,26.732,2.5,39.899
	c1.9,11.435,5.934,22.033,12.101,31.8c3.732,5.935,8.417,10.983,14.05,15.15c9.733-2.533,17.533-7.817,23.4-15.851
	c4.434-6.101,8.684-12.333,12.75-18.699c4.399-6.9,7.217-14.367,8.449-22.4c1.733-11.133,1.934-22.283,0.601-33.45
	c-0.333-2.833-0.851-5.565-1.55-8.199c-1.601-5.601-0.968-10.5,1.899-14.699c0.3-0.4,0.7-0.717,1.2-0.95
	c8.033-2.867,14.733-0.983,20.1,5.649c1.768,2.232,2.95,4.782,3.551,7.649C123.021,48.687,123.47,52.319,123.57,55.92z"/>
</svg>
