<?xml version="1.0" encoding="utf-8"?>
<!-- Generator: Adobe Illustrator 16.0.4, SVG Export Plug-In . SVG Version: 6.00 Build 0)  -->
<!DOCTYPE svg PUBLIC "-//W3C//DTD SVG 1.1//EN" "http://www.w3.org/Graphics/SVG/1.1/DTD/svg11.dtd">
<svg version="1.1" id="Layer_1" xmlns="http://www.w3.org/2000/svg" xmlns:xlink="http://www.w3.org/1999/xlink" x="0px" y="0px"
	 width="1667.464px" height="348.755px" viewBox="0 0 1667.464 348.755" enable-background="new 0 0 1667.464 348.755"
	 xml:space="preserve">
<path fill-rule="evenodd" clip-rule="evenodd" d="M967.417,343.185c-7.459-1.17-12.473-8.27-12.354-15.578
	c0.146-9.127,0.564-18.251,0.879-27.376c1.691-49.12,2.756-97.982,7.16-146.958c2.143-23.821,5.297-47.817,6.191-71.717
	c0.514-13.724-1.217-30.443-11.227-40.937c-10.955-11.487-27.033-6.752-38.697,0.819c-10.744,6.972-21.16,14.435-31.33,22.215
	c-13.031,9.97-34.791,19.798-31.613,39.636c1.809,11.272,0.738,22.291,1.758,33.504c1.135,12.478,1.592,25.008,1.766,37.533
	c0.344,24.646-0.473,49.298,0.334,73.938c0.867,26.475,1.91,54.281,5.418,80.52c0.756,5.664,1.332,14.426-5.432,16.604
	c-24.939,8.033-20.945-48.867-21.979-61.223c-5.487-65.667-3.338-133.306-4.46-199.509c-0.321-18.955-0.741-37.935-2.652-56.813
	c-0.524-5.185-2.324-11.729,2.254-15.764c10.679-9.412,19.187,12.224,20.224,19.626c1.547,11.019,0.137,22.042,0.949,33.08
	c-0.279-3.773,18.521-15.111,21.91-17.384c27.387-18.371,71.518-56.503,100.242-17.471c5.234,7.112,9.846,14.656,15.418,23.038
	c1.26,1.575,42.691-28.583,47.262-32.47c17.896-15.214,53.586-20.878,70.756-1.668c23.535,26.327,15.4,71.019,13.572,102.838
	c-1.67,29.096-3.498,58.168-5.82,87.224c-1.332,16.648-2.752,33.29-4.188,49.93c-1.252,14.497-2.252,29.103-1.072,43.639
	c1.008,12.414,2.686,18.385-4.855,28.781c-5.365,7.394-12.197,5.922-17.051-0.898c-5.209-7.324-4.471-15.043-3.98-23.483
	c2.553-44.055,6.457-87.909,9.957-131.893c2.869-36.048,6.895-73.035,6.686-109.194c-0.055-9.559-0.977-19.92-7.875-27.312
	c-17.375-18.611-46.861,2.152-62.004,12.391c-10.254,6.933-21.611,13.659-30.951,21.786c-5.869,5.106-9.068,11.436-11.197,19.067
	c-3.416,12.243-2.742,25.913-3.834,38.512c-4.033,46.543-6.896,92.444-6.947,139.198c-0.014,13.648-0.012,27.296-0.189,40.943
	c-0.098,7.438,3.438,17.574,0.365,24.567C977.851,341.662,972.489,343.979,967.417,343.185z"/>
<path fill-rule="evenodd" clip-rule="evenodd" d="M338.457,166.694c-3.093,1.901-6.19,2.873-8.687,1.693
	c11.746,5.554,20.168,7.903,28.65,18.526c21.77,27.265,28.931,69.4,19.895,102.946c-9.617,35.708-39.148,52.825-74.256,55.628
	c-8.963,0.716-18.111,0.704-27.086,0.168c-8.59-0.514-20.094-0.375-28.182-3.436c-6.037-2.286-5.412-10.756-6.393-17.334
	c-2.537-17.011-0.373-34.068-1.85-50.97c-1.684-19.272,1.662-39.413,1.402-58.796c-0.365-27.256-0.699-54.511-1.16-81.764
	c-0.355-20.75-0.777-41.499-1.349-62.245c-0.293-10.658-1.313-21.474-2.131-32.092c-0.675-8.77-2.872-17.513-0.663-26.313
	c0.545-2.17,1.966-3.496,3.773-4.662c5.137-3.315,14.963-2.634,20.98-3.554c6.764-1.035,13.586-1.703,20.427-1.903
	c13.53-0.394,27.265,0.925,40.233,4.935c26.258,8.119,45.242,27.869,49.861,55.304c1.891,11.228,3.119,24.546,1.626,35.88
	c-1.377,10.458-3.812,21.588-7.601,31.458c-3.447,8.982-8.565,17.524-14.82,24.831C348.874,157.629,343.674,163.485,338.457,166.694
	z M265.686,181.149c-0.453,8.616-1.143,16.27-1.204,23.928c-0.195,24.219,0.178,48.447-0.338,72.658
	c-0.281,13.146,1.354,25.852,4.45,38.556c1.191,4.892,3.312,7.204,8.371,7.568c17.08,1.229,34.311,3.811,50.641-3.14
	c29.938-12.742,34.604-52.715,29.98-81.008c-1.663-10.18-5.238-22.299-10.943-30.998c-6.25-9.533-17.243-19.441-27.801-24.016
	c-7.746-3.355-17.008-3.984-25.636-4.325C284.286,180.021,275.106,177.181,265.686,181.149z M287.079,158.142
	c15.381-0.828,29.751-4.441,42.588-15.369c19.254-16.389,24.522-44.218,22.907-68.362c-0.599-8.939-3.739-21.286-9.371-28.483
	C330.2,29.313,308.661,23.253,288.44,21.908c-8.235-0.548-20.436-1.458-28.006,2.862c-6.312,3.602-3.752,12.676-2.619,18.727
	c3.748,20.002,4.527,40.395,5.092,60.691c0.498,17.963-0.619,35.797,0.208,53.66C271.315,158.268,279.325,158.559,287.079,158.142z"
	/>
<path fill-rule="evenodd" clip-rule="evenodd" d="M698.823,193.79c3.363,6.187,6.273,11.015,8.674,16.062
	c18.23,38.314,40.17,74.664,59.998,112.141c4.336,8.192-0.957,16.71-10.275,17.541c-4.662,0.416-7.127-1.592-9.1-5.162
	c-12.395-22.418-25.459-44.461-37.602-67.021c-7.271-13.515-14.498-27.07-20.875-41.038c-3.096-6.78-8.293-31.485-17.473-31.949
	c-10.77-0.545-4.963,24.718-4.582,30.316c0.631,9.225,0.672,18.527,0.816,27.77c0.377,24.31,0.162,48.652,1.957,72.914
	c0.605,8.166-2.699,11.577-11.384,12.436c-5.952,0.588-11.789-4.107-11.919-11.027c-0.498-26.475,0.77-52.963-0.324-79.429
	c-2.217-53.703-9.106-107.202-8.451-161.018c0.301-24.61,0.5-49.198-0.404-73.799c-0.191-5.197,2.225-8.138,7.938-8.524
	c39.279-2.659,84.506-9.795,117.189,18.175c22.145,18.947,26.713,52.021,27.094,79.634c0.467,33.884-19.324,67.42-50.848,80.652
	C735.954,183.849,700.26,196.433,698.823,193.79z M678.954,18.892c-13.014,0.639-21.488,4.251-21.041,18.66
	c0.59,18.941,1.987,37.443,2.197,56.411c0.229,20.837-0.465,41.733,1.695,62.499c1.062,10.203,4.428,13.225,15.23,13.72
	c21.791,1,47.266,0.472,65.557-13.003c16.568-12.206,23.332-32.499,24.537-52.336c1.141-18.731,1.035-37.645-9.443-53.944
	C740.565,24.267,708.77,17.424,678.954,18.892z"/>
<path fill-rule="evenodd" clip-rule="evenodd" d="M185.293,327.66c-0.011,7.288-2.306,13.53-10.689,14.571
	c-10.934,1.354-18.87-4.289-19.043-15.055c-0.042-2.652,2.698-34.416,2.933-34.462c-4.469,0.872-6.8,9.45-9.181,12.821
	c-3.756,5.318-7.367,11.076-11.446,16.152c-6.316,7.86-13.474,15.159-22.653,19.622c-13.846,6.731-31.015,7.825-45.934,4.598
	c-7.75-1.677-16.65-4.646-23.328-9.039c-22.343-14.696-32.654-42.139-37.346-67.335c-3.044-16.347-4.529-33.407-4.814-50.032
	c-0.641-37.505-3.079-74.975-2.637-112.497c0.27-22.364-1.35-44.683-1.135-67.015C0.084,33.302,0.312,25.66,2,19.139
	c1.771-6.834,9.315-10.973,14.779-5.627c10.908,10.678,6.108,32.74,5.911,46.109c-0.485,32.929,1.072,65.835,2.439,98.726
	c1.25,30.072,0.323,60.759,4.15,90.645c3.915,30.559,17.258,73.104,53.84,76.676c20.536,2.005,35.866-10.235,47.337-25.764
	c12.919-17.488,17.501-39.084,20.131-60.241c6.989-56.229,8.343-112.915,11.434-169.382c0.671-12.256,1.505-24.508,1.75-36.783
	c0.153-7.673-2.674-21.337,7.328-24.016c6.291-1.685,12.304,0.449,13.703,6.444c2.733,11.72,0.048,23.875-0.152,35.723
	c-0.77,45.633-3.182,91.201-4.189,136.828c-0.579,26.265-1.708,52.54-0.987,78.813c0.36,13.158,0.936,26.418,2.791,39.46
	C183.006,311.954,185.304,320.335,185.293,327.66z"/>
<path fill-rule="evenodd" clip-rule="evenodd" d="M461.01,211.76c-2.174,0.481,4.943,52.114,5.52,57.01
	c0.804,6.827,1.824,13.612,3.166,20.36c3.614,18.173,12.59,33.988,32.495,36.535c18.706,2.395,34.754-3.324,42.935-20.977
	c2.486-5.361,4.905-14.771,12.552-13.34c4.579,0.857,8.736,3.172,8.417,7.99c-1.862,28.006-28.398,46.686-55.348,49.176
	c-23.195,2.143-43.445-10.196-54.027-30.532c-6.613-12.706-10.872-28.058-12.964-42.196c-1.646-11.118-2.544-22.348-3.321-33.555
	c-2.264-32.564-5.637-64.912-5.668-97.598c-0.019-19.29,0.787-38.539,2.76-57.732c2.681-26.095,10.48-68.037,35.92-82.384
	c7.387-4.167,18.771-5.558,27.069-3.725c44.104,9.743,73.156,42.911,83.405,85.495c7.041,29.254,7.585,59.567,3.158,89.258
	c-1.152,7.738-1.645,17.483-7.172,23.558c-7.232,7.949-21.566,8.586-31.471,9.014c-26.184,1.131-52.435,1.137-78.652,2.275
	C467.083,210.507,464.405,211.211,461.01,211.76z M536.018,190.788c17.418-1.668,32.668-7.245,33.242-23.318
	c0.382-10.729,3.146-21.387,2.73-32.14c-1.402-36.214-9.829-77.184-40.8-100.041c-8.456-6.241-19.074-11.596-29.196-14.532
	c-10.047-2.915-17.633,0.101-23.966,8.414c-11.991,15.738-14.19,39.254-16.635,58.279c-3.218,25.046-3.78,50.39-4.442,75.604
	c-0.146,5.614-2.074,20.158,2.664,24.412c7.669,6.885,21.596,3.453,30.924,3.164C500.067,190.335,519.069,192.411,536.018,190.788z"
	/>
<path fill-rule="evenodd" clip-rule="evenodd" d="M1580.794,36.449c-3.787-4.646-13.25-3.163-18.41-2.09
	c-6.951,1.447-13.775,2.11-20.812,3.025c-8.191,1.063-18.34,2.82-26.207-0.486c-13.834-5.812-4.316-19.85,5.961-22.291
	c11.52-2.734,24.145-0.117,35.834-0.489c18.684-0.593,37.182-3.422,55.615-6.354c8.279-1.317,16.676-1.352,25.016-1.999
	c6.377-0.495,25.375-8.776,28.688-0.5c1.227,3.097,1.555,15.85-0.463,18.326c-6.236,7.648-59.904,1.487-59.904,7.09
	c-0.008,32.587-3.43,65.558-3.574,98.354c-0.148,34.035,0.756,68.068,2.236,102.068c1.426,32.779,6.344,65.605,6.061,98.436
	c-0.066,7.855-9.711,16.275-17.17,14.492c-4.164-0.996-8.037-4.035-8.367-8.9c-3.604-52.438-7.037-105.271-7.195-157.842
	c-0.047-15.268,0.211-30.537,0.836-45.791c0.863-21.086,1.42-42.184,2.229-63.273c0.307-8.013,4.041-23.245,0.426-30.535
	C1581.366,37.234,1581.099,36.822,1580.794,36.449z"/>
<path fill-rule="evenodd" clip-rule="evenodd" d="M1354.466,111.422c3.033,30.387-10.209,69.374-32.072,91.077
	c-30.922,30.693-83.496,25.955-115.764,0.451c-8.762-6.924-18.314-16.646-23.707-26.533c-6.498-11.909-12.543-28.458-13.443-42.089
	c-0.908-13.7,0.207-28.31,2.719-41.805c3.1-16.656,11.699-33.382,25.639-43.354c28.312-20.249,71.527-19.024,104.291-13.03
	C1335.685,42.28,1351.485,81.555,1354.466,111.422z M1332.302,114.416c-0.42-14.339-4.16-28.369-12.811-41.084
	c-19.604-28.808-66.564-24.392-94.756-12.962c-8.113,3.29-19.861,11.546-23.404,19.93c-14.129,33.43-13.955,81.57,19.611,103.222
	c16.574,10.689,37.258,20.08,57.402,17.822C1317.708,196.933,1333.294,148.274,1332.302,114.416z"/>
<path fill-rule="evenodd" clip-rule="evenodd" d="M1338.753,281.683c0.189,1.656,0.043,3.422-0.393,5.135
	c-1.965,7.742-10.33,11.047-17.791,11.672c-23.645,1.978-47.875,0.471-71.598,0.469c-11.521,0-23.043-0.099-34.559-0.432
	c-9.271-0.271-19.561,0.215-27.371-5.615c-4.074-3.047-5.482-10.721-2.027-14.372c5.09-5.378,16.787-3.987,23.287-3.714
	c21.09,0.889,42.17,1.246,63.283,1.273c9.436,0.014,20.068,1.121,29.945,0.475c9.969-0.65,19.932-4.193,29.963-2.66
	C1336.091,274.613,1338.315,277.861,1338.753,281.683z"/>
<g>
	<path fill-rule="evenodd" clip-rule="evenodd" d="M1470.315,243.313c-3.697-17.908-11.4-34.223-19.951-50.177
		c-14.283-26.653-29.285-52.942-42.811-79.974c-8.898-17.787-13.932-37.088-14.885-57.165c-0.99-20.789,9.477-37.244,28.527-45.336
		c19.025-8.083,46.926,0.787,57.707,20.949c2.691,5.03,2.18,12.03,2.117,18.116c-0.02,1.833-3.408,4.938-5.406,5.061
		c-1.836,0.116-3.982-2.884-5.764-4.732c-0.627-0.649-0.592-1.95-0.826-2.96c-1.33-5.689-1.682-11.711-7.582-15.307
		c-8.498-5.185-17.246-9.199-27.52-7.719c-7.984,1.149-13.082,6.614-16.652,13.063c-5.875,10.612-7.354,21.915-4.666,34.089
		c4.93,22.332,14.098,42.726,25.525,62.387c11.307,19.451,22.281,39.119,32.668,59.074c15.801,30.344,23.121,62.547,17.604,96.75
		c-2.844,17.604-11.539,32.861-23.814,45.505c-7.672,7.907-18.434,8.049-28.42,4.778c-14.912-4.885-27.16-14.094-36.098-26.969
		c-2.299-3.309-2.369-8.464-2.59-12.818c-0.17-3.344,1.975-5.747,5.756-6.237c3.469-0.452,6.334,0.286,7.838,3.628
		c4.664,10.381,13.498,16.44,22.574,22.373c10.977,7.178,19.867,5.188,27.889-4.933c11.838-14.937,11.422-32.36,11.303-49.73
		C1472.788,257.784,1471.202,250.552,1470.315,243.313z"/>
	<path fill="#010101" d="M1451.093,345.233c-15.824,1.441-33.621-6.773-44.672-17.756c-5.461-5.43-10.074-12.951-12.307-20.353
		c-1.885-6.253,0.443-16.14,8.631-17.204c7.145-0.916,10.373,2.68,11.793,5.838c4.859,10.8,15.285,20.398,27.285,21.971
		c15.262,2,23.141-12.438,25.969-25.543c8.568-39.682-11.094-80.211-29.617-113.918c-21.186-38.552-47.15-76.821-49.305-122.088
		c-1.551-32.551,32.957-64.065,64.684-49.31c17.338,8.063,31.691,20.147,31.305,40.707c-0.014,0.738-0.027,1.469-0.033,2.188
		c-0.045,3.991-5.033,8.409-8.725,8.796c-0.084,0.009-0.166,0.015-0.252,0.021c-10.25,0.644-11.689-18.859-18.248-24.501
		c-11.686-10.05-29.398-8.844-37.004,4.893c-15.703,28.368,6.498,68.081,20.82,92.723c24.404,41.986,55.076,87.789,52.916,138.588
		c-1,23.523-9.617,61.988-33.896,72.629C1457.524,344.192,1454.347,344.938,1451.093,345.233z M1404.022,297.427l-0.299,0.033
		c-2.547,0.332-2.477,1.694-2.447,2.275l0.049,1.016c0.172,3.594,0.365,7.666,1.865,9.828c8.549,12.312,20.043,20.898,34.16,25.523
		c4.686,1.535,9.045,2.105,12.963,1.695c4.578-0.479,8.463-2.33,11.545-5.508c12.553-12.932,20.221-27.556,22.789-43.464
		c5.082-31.495-0.551-62.37-17.221-94.387c-9.605-18.451-20.264-37.725-32.584-58.921c-13.129-22.585-21.377-42.756-25.951-63.477
		c-2.893-13.106-1.191-25.47,5.053-36.75c4.863-8.787,11.402-13.829,19.438-14.985c11.803-1.703,21.84,3.233,30.041,8.234
		c6.439,3.928,7.736,10.207,8.779,15.253c0.166,0.812,0.336,1.628,0.523,2.436c0.109,0.46,0.168,0.891,0.225,1.27
		c0.014,0.107,0.033,0.238,0.051,0.359c0.281,0.304,0.57,0.627,0.863,0.957c0.504,0.566,1.262,1.42,1.822,1.927
		c0.564-0.38,1.25-1.024,1.537-1.473c0.008-0.604,0.02-1.217,0.031-1.836c0.098-5.149,0.197-10.474-1.701-14.028
		c-7.691-14.378-25.822-23.503-43.115-21.696c-3.502,0.366-6.785,1.191-9.756,2.452c-17.566,7.462-27.123,22.645-26.217,41.657
		c0.93,19.566,5.807,38.287,14.488,55.644c9.064,18.115,18.973,36.227,28.559,53.74c4.678,8.554,9.516,17.394,14.203,26.138
		c8.238,15.371,16.402,32.213,20.322,51.203l0.051,0.307c0.27,2.207,0.617,4.479,0.953,6.677c0.77,5.026,1.562,10.221,1.598,15.476
		l0.01,1.238c0.125,17.33,0.256,35.25-12.135,50.88c-5.123,6.464-10.562,9.916-16.629,10.55c-0.002,0-0.002,0-0.004,0
		c-5.139,0.537-10.627-1.076-16.314-4.795c-8.314-5.436-18.66-12.198-23.963-23.996
		C1407.237,298.062,1406.819,297.135,1404.022,297.427z"/>
</g>
</svg>
