<?xml version="1.0" encoding="utf-8"?>
<!-- Generator: Adobe Illustrator 16.0.4, SVG Export Plug-In . SVG Version: 6.00 Build 0)  -->
<!DOCTYPE svg PUBLIC "-//W3C//DTD SVG 1.1//EN" "http://www.w3.org/Graphics/SVG/1.1/DTD/svg11.dtd">
<svg version="1.1" id="Layer_1" xmlns="http://www.w3.org/2000/svg" xmlns:xlink="http://www.w3.org/1999/xlink" x="0px" y="0px"
	 width="805.16px" height="733.551px" viewBox="0 0 805.16 733.551" enable-background="new 0 0 805.16 733.551"
	 xml:space="preserve">
<path fill-rule="evenodd" clip-rule="evenodd" d="M131.731,730.731c-7.071-1.109-11.823-7.838-11.71-14.766
	c0.14-8.65,0.535-17.299,0.833-25.947c1.604-46.557,2.614-92.869,6.788-139.289c2.03-22.578,5.02-45.322,5.868-67.975
	c0.487-13.008-1.154-28.854-10.639-38.8c-10.385-10.888-25.623-6.399-36.68,0.776c-10.183,6.607-20.056,13.681-29.695,21.056
	c-12.35,9.449-32.974,18.765-29.962,37.567c1.712,10.684,0.698,21.127,1.665,31.756c1.076,11.826,1.508,23.703,1.674,35.574
	c0.326,23.359-0.447,46.725,0.317,70.078c0.821,25.094,1.809,51.449,5.134,76.318c0.717,5.367,1.263,13.672-5.147,15.736
	c-23.639,7.613-19.853-46.316-20.831-58.027C4.143,612.55,6.18,548.44,5.116,485.692c-0.305-17.966-0.703-35.955-2.514-53.848
	c-0.498-4.914-2.202-11.117,2.137-14.941c10.122-8.92,18.186,11.586,19.169,18.602c1.464,10.444,0.128,20.892,0.897,31.354
	c-0.263-3.576,17.556-14.322,20.768-16.477c25.957-17.412,67.785-53.555,95.011-16.559c4.961,6.741,9.331,13.891,14.612,21.835
	c1.194,1.493,40.464-27.091,44.797-30.775c16.961-14.421,50.788-19.788,67.063-1.581c22.307,24.953,14.595,67.312,12.863,97.471
	c-1.584,27.578-3.316,55.133-5.518,82.672c-1.261,15.779-2.607,31.553-3.968,47.324c-1.186,13.74-2.134,27.584-1.015,41.361
	c0.955,11.766,2.545,17.426-4.603,27.279c-5.084,7.008-11.562,5.613-16.16-0.852c-4.938-6.941-4.238-14.258-3.774-22.258
	c2.42-41.756,6.121-83.322,9.438-125.01c2.719-34.166,6.534-69.224,6.336-103.496c-0.052-9.06-0.925-18.88-7.464-25.886
	c-16.467-17.64-44.416,2.04-58.768,11.744c-9.717,6.57-20.482,12.945-29.335,20.648c-5.563,4.84-8.596,10.84-10.614,18.072
	c-3.237,11.604-2.599,24.561-3.633,36.502c-3.823,44.115-6.538,87.619-6.584,131.934c-0.014,12.936-0.011,25.871-0.18,38.807
	c-0.092,7.049,3.258,16.656,0.347,23.285C141.619,729.288,136.536,731.483,131.731,730.731z"/>
<path fill-rule="evenodd" clip-rule="evenodd" d="M338.457,166.694c-3.092,1.901-6.19,2.873-8.687,1.693
	c11.746,5.554,20.168,7.902,28.651,18.526c21.769,27.265,28.93,69.4,19.895,102.946c-9.618,35.708-39.149,52.825-74.256,55.627
	c-8.963,0.716-18.112,0.705-27.086,0.168c-8.589-0.513-20.093-0.375-28.182-3.436c-6.038-2.286-5.412-10.755-6.393-17.333
	c-2.537-17.011-0.372-34.068-1.849-50.97c-1.684-19.272,1.662-39.413,1.402-58.796c-0.366-27.255-0.7-54.511-1.161-81.764
	c-0.355-20.75-0.777-41.499-1.348-62.245c-0.293-10.658-1.314-21.474-2.131-32.092c-0.674-8.77-2.872-17.513-0.664-26.313
	c0.545-2.17,1.966-3.496,3.774-4.662c5.137-3.315,14.963-2.634,20.981-3.554c6.763-1.035,13.586-1.703,20.426-1.903
	c13.531-0.394,27.265,0.925,40.234,4.935c26.257,8.119,45.241,27.869,49.861,55.304c1.891,11.228,3.119,24.546,1.625,35.88
	c-1.377,10.458-3.812,21.588-7.6,31.458c-3.448,8.982-8.566,17.524-14.821,24.831C348.873,157.629,343.674,163.485,338.457,166.694z
	 M265.687,181.149c-0.453,8.617-1.143,16.27-1.205,23.929c-0.195,24.219,0.178,48.447-0.338,72.658
	c-0.281,13.146,1.354,25.852,4.45,38.555c1.192,4.892,3.313,7.204,8.372,7.568c17.08,1.23,34.311,3.811,50.64-3.139
	c29.938-12.743,34.604-52.715,29.981-81.008c-1.663-10.179-5.239-22.298-10.944-30.998c-6.25-9.533-17.243-19.441-27.8-24.015
	c-7.746-3.356-17.007-3.985-25.636-4.326C284.286,180.021,275.106,177.181,265.687,181.149z M287.079,158.142
	c15.38-0.828,29.751-4.441,42.588-15.369c19.254-16.389,24.522-44.218,22.907-68.362c-0.599-8.939-3.739-21.286-9.371-28.483
	C330.2,29.313,308.66,23.253,288.439,21.908c-8.235-0.548-20.435-1.458-28.006,2.862c-6.312,3.602-3.751,12.676-2.618,18.727
	c3.748,20.002,4.526,40.395,5.091,60.691c0.499,17.963-0.618,35.797,0.208,53.66C271.314,158.268,279.325,158.559,287.079,158.142z"
	/>
<path fill-rule="evenodd" clip-rule="evenodd" d="M698.823,193.79c3.364,6.187,6.274,11.015,8.675,16.062
	c18.23,38.314,40.169,74.665,59.998,112.141c4.336,8.192-0.957,16.71-10.275,17.541c-4.662,0.416-7.127-1.592-9.1-5.163
	c-12.394-22.417-25.459-44.46-37.601-67.02c-7.273-13.515-14.499-27.07-20.876-41.038c-3.096-6.781-8.293-31.486-17.472-31.95
	c-10.77-0.544-4.963,24.718-4.582,30.316c0.63,9.225,0.672,18.527,0.816,27.77c0.378,24.31,0.163,48.652,1.958,72.914
	c0.605,8.167-2.699,11.577-11.385,12.436c-5.952,0.588-11.789-4.107-11.919-11.027c-0.498-26.475,0.77-52.963-0.325-79.429
	c-2.217-53.703-9.106-107.202-8.451-161.018c0.301-24.61,0.5-49.198-0.404-73.799c-0.191-5.197,2.224-8.138,7.938-8.524
	c39.278-2.659,84.505-9.795,117.189,18.175c22.144,18.947,26.713,52.021,27.094,79.634c0.466,33.884-19.326,67.42-50.848,80.652
	C735.954,183.848,700.26,196.433,698.823,193.79z M678.953,18.892c-13.013,0.639-21.488,4.251-21.041,18.66
	c0.59,18.941,1.987,37.443,2.197,56.411c0.23,20.837-0.465,41.733,1.695,62.499c1.062,10.203,4.428,13.225,15.23,13.72
	c21.792,1,47.267,0.472,65.558-13.003c16.567-12.206,23.331-32.499,24.537-52.336c1.141-18.731,1.034-37.645-9.444-53.944
	C740.565,24.267,708.771,17.424,678.953,18.892z"/>
<path fill-rule="evenodd" clip-rule="evenodd" d="M185.293,327.66c-0.011,7.288-2.306,13.531-10.689,14.571
	c-10.934,1.355-18.87-4.289-19.043-15.054c-0.042-2.652,2.698-34.417,2.933-34.462c-4.469,0.873-6.8,9.45-9.181,12.821
	c-3.756,5.318-7.367,11.077-11.446,16.152c-6.316,7.86-13.474,15.159-22.653,19.622c-13.846,6.732-31.015,7.825-45.934,4.598
	c-7.75-1.677-16.65-4.646-23.328-9.039c-22.343-14.696-32.654-42.139-37.346-67.335c-3.044-16.347-4.529-33.407-4.814-50.032
	c-0.641-37.505-3.079-74.975-2.637-112.497c0.27-22.364-1.35-44.683-1.135-67.015C0.084,33.302,0.312,25.66,2,19.139
	c1.771-6.834,9.315-10.973,14.779-5.627c10.908,10.678,6.108,32.74,5.911,46.109c-0.485,32.929,1.072,65.835,2.439,98.726
	c1.25,30.072,0.323,60.759,4.15,90.645c3.915,30.559,17.258,73.104,53.84,76.676c20.536,2.004,35.866-10.236,47.337-25.765
	c12.919-17.488,17.501-39.083,20.131-60.241c6.989-56.23,8.343-112.915,11.434-169.382c0.671-12.256,1.505-24.508,1.75-36.783
	c0.153-7.673-2.674-21.337,7.328-24.016c6.291-1.685,12.304,0.449,13.703,6.444c2.734,11.72,0.048,23.875-0.152,35.723
	c-0.77,45.633-3.182,91.201-4.189,136.828c-0.579,26.265-1.708,52.54-0.987,78.813c0.36,13.159,0.936,26.418,2.791,39.46
	C183.006,311.955,185.304,320.334,185.293,327.66z"/>
<path fill-rule="evenodd" clip-rule="evenodd" d="M461.011,211.76c-2.174,0.482,4.943,52.114,5.519,57.01
	c0.804,6.827,1.824,13.613,3.166,20.36c3.615,18.173,12.59,33.989,32.496,36.536c18.706,2.394,34.754-3.324,42.935-20.977
	c2.485-5.361,4.905-14.771,12.551-13.34c4.579,0.857,8.736,3.172,8.417,7.99c-1.862,28.006-28.398,46.686-55.348,49.176
	c-23.196,2.143-43.445-10.196-54.028-30.532c-6.612-12.707-10.872-28.058-12.963-42.197c-1.645-11.118-2.543-22.348-3.322-33.554
	c-2.263-32.565-5.636-64.912-5.667-97.598c-0.019-19.29,0.787-38.539,2.759-57.732c2.681-26.095,10.48-68.037,35.92-82.384
	c7.387-4.167,18.771-5.558,27.069-3.725c44.104,9.743,73.156,42.911,83.406,85.495c7.04,29.254,7.584,59.567,3.158,89.258
	c-1.153,7.738-1.646,17.484-7.172,23.558c-7.232,7.949-21.567,8.586-31.471,9.014c-26.183,1.131-52.434,1.137-78.651,2.274
	C467.082,210.506,464.405,211.211,461.011,211.76z M536.019,190.788c17.417-1.668,32.667-7.245,33.241-23.318
	c0.382-10.729,3.146-21.387,2.73-32.14c-1.402-36.214-9.829-77.184-40.799-100.041c-8.456-6.241-19.074-11.596-29.197-14.532
	c-10.047-2.915-17.632,0.101-23.965,8.414c-11.991,15.738-14.19,39.254-16.635,58.279c-3.218,25.046-3.78,50.39-4.442,75.604
	c-0.147,5.614-2.075,20.158,2.664,24.412c7.668,6.884,21.595,3.453,30.923,3.164C500.066,190.335,519.068,192.411,536.019,190.788z"
	/>
<path fill-rule="evenodd" clip-rule="evenodd" d="M720.966,433.657c-3.68-4.514-12.873-3.072-17.885-2.03
	c-6.753,1.405-13.383,2.05-20.22,2.938c-7.956,1.033-17.816,2.739-25.459-0.473c-13.438-5.646-4.191-19.283,5.791-21.654
	c11.192-2.656,23.456-0.113,34.812-0.475c18.15-0.576,36.121-3.324,54.027-6.173c8.043-1.279,16.199-1.313,24.301-1.942
	c6.195-0.48,24.65-8.525,27.869-0.485c1.191,3.009,1.51,15.397-0.451,17.803c-6.057,7.43-58.193,1.444-58.193,6.888
	c-0.006,31.656-3.33,63.686-3.471,95.545c-0.145,33.062,0.734,66.123,2.171,99.152c1.385,31.844,6.163,63.732,5.888,95.625
	c-0.064,7.631-9.434,15.811-16.68,14.078c-4.046-0.969-7.808-3.92-8.127-8.646c-3.501-50.939-6.836-102.266-6.99-153.334
	c-0.045-14.832,0.205-29.664,0.812-44.482c0.838-20.485,1.379-40.98,2.164-61.466c0.298-7.784,3.926-22.581,0.414-29.663
	C721.521,434.419,721.261,434.019,720.966,433.657z"/>
<path fill-rule="evenodd" clip-rule="evenodd" d="M498.58,505.376c2.875,28.802-9.676,65.753-30.398,86.324
	c-29.308,29.092-79.139,24.602-109.723,0.428c-8.304-6.562-17.358-15.777-22.47-25.148c-6.158-11.287-11.888-26.973-12.743-39.893
	c-0.859-12.984,0.198-26.833,2.578-39.624c2.938-15.787,11.088-31.641,24.301-41.092c26.834-19.191,67.795-18.031,98.849-12.35
	C480.778,439.842,495.753,477.068,498.58,505.376z M477.572,508.214c-0.398-13.59-3.943-26.889-12.143-38.94
	c-18.579-27.305-63.09-23.119-89.81-12.286c-7.69,3.118-18.824,10.943-22.183,18.89c-13.391,31.686-13.227,77.313,18.587,97.834
	c15.71,10.133,35.314,19.033,54.408,16.893C463.741,586.425,478.512,540.306,477.572,508.214z"/>
<path fill-rule="evenodd" clip-rule="evenodd" d="M483.686,666.751c0.18,1.57,0.042,3.244-0.371,4.867
	c-1.864,7.338-9.792,10.471-16.864,11.062c-22.409,1.875-45.374,0.447-67.86,0.445c-10.92,0-21.84-0.094-32.755-0.41
	c-8.787-0.256-18.539,0.205-25.941-5.322c-3.862-2.887-5.197-10.16-1.923-13.621c4.825-5.098,15.911-3.779,22.071-3.52
	c19.989,0.842,39.97,1.18,59.982,1.207c8.943,0.012,19.02,1.062,28.382,0.449c9.448-0.617,18.891-3.975,28.399-2.521
	C481.163,660.052,483.271,663.13,483.686,666.751z"/>
<g>
	<path fill-rule="evenodd" clip-rule="evenodd" d="M608.382,630.386c-3.504-16.975-10.805-32.438-18.909-47.559
		c-13.539-25.262-27.758-50.18-40.576-75.8c-8.434-16.858-13.204-35.153-14.108-54.182c-0.938-19.704,8.982-35.3,27.038-42.97
		c18.033-7.661,44.478,0.746,54.696,19.855c2.551,4.768,2.066,11.402,2.007,17.17c-0.019,1.738-3.231,4.68-5.124,4.797
		c-1.74,0.11-3.775-2.733-5.464-4.485c-0.594-0.615-0.56-1.848-0.783-2.806c-1.261-5.393-1.593-11.1-7.186-14.508
		c-8.055-4.914-16.346-8.719-26.083-7.316c-7.568,1.09-12.4,6.27-15.783,12.382c-5.568,10.058-6.971,20.771-4.424,32.31
		c4.674,21.166,13.362,40.497,24.194,59.131c10.716,18.436,21.118,37.078,30.964,55.992c14.975,28.76,21.914,59.281,16.683,91.699
		c-2.694,16.686-10.936,31.146-22.57,43.131c-7.271,7.494-17.472,7.629-26.938,4.529c-14.134-4.631-25.741-13.359-34.214-25.562
		c-2.178-3.135-2.244-8.021-2.454-12.148c-0.161-3.17,1.872-5.447,5.456-5.912c3.288-0.428,6.004,0.271,7.428,3.439
		c4.422,9.838,12.794,15.582,21.396,21.205c10.404,6.803,18.831,4.916,26.434-4.676c11.221-14.156,10.825-30.672,10.712-47.135
		C610.726,644.101,609.224,637.245,608.382,630.386z"/>
	<path d="M590.164,726.985c-14.998,1.367-31.866-6.42-42.34-16.828c-5.178-5.146-9.55-12.275-11.665-19.291
		c-1.786-5.926,0.421-15.297,8.181-16.307c6.771-0.867,9.831,2.541,11.178,5.533c4.605,10.236,14.486,19.334,25.859,20.824
		c14.467,1.896,21.934-11.787,24.615-24.209c8.121-37.611-10.515-76.025-28.071-107.973c-20.081-36.541-44.69-72.813-46.732-115.717
		c-1.469-30.853,31.236-60.722,61.308-46.736c16.433,7.643,30.037,19.096,29.671,38.582c-0.013,0.7-0.026,1.393-0.032,2.074
		c-0.041,3.783-4.769,7.971-8.269,8.337c-0.079,0.009-0.157,0.015-0.238,0.021c-9.715,0.61-11.079-17.875-17.297-23.223
		c-11.074-9.525-27.862-8.383-35.071,4.638c-14.885,26.888,6.158,64.527,19.733,87.884c23.131,39.795,52.202,83.207,50.154,131.355
		c-0.948,22.295-9.115,58.754-32.128,68.838C596.258,725.999,593.248,726.706,590.164,726.985z M545.55,681.675l-0.283,0.031
		c-2.414,0.314-2.348,1.605-2.32,2.156l0.047,0.963c0.162,3.406,0.346,7.266,1.768,9.314c8.104,11.67,18.996,19.809,32.377,24.191
		c4.44,1.455,8.574,1.996,12.286,1.607c4.34-0.453,8.021-2.209,10.943-5.221c11.897-12.256,19.165-26.117,21.599-41.195
		c4.817-29.852-0.521-59.115-16.32-89.461c-9.105-17.488-19.207-35.756-30.885-55.846c-12.443-21.407-20.26-40.525-24.597-60.165
		c-2.741-12.422-1.13-24.141,4.789-34.832c4.609-8.328,10.808-13.107,18.423-14.203c11.188-1.614,20.701,3.064,28.474,7.805
		c6.103,3.723,7.333,9.674,8.32,14.457c0.159,0.77,0.318,1.543,0.497,2.309c0.103,0.437,0.16,0.844,0.212,1.203
		c0.015,0.102,0.032,0.227,0.05,0.341c0.266,0.288,0.539,0.595,0.816,0.907c0.479,0.537,1.197,1.346,1.728,1.826
		c0.535-0.36,1.185-0.971,1.458-1.396c0.008-0.572,0.019-1.153,0.029-1.74c0.092-4.881,0.188-9.928-1.613-13.296
		c-7.289-13.628-24.475-22.276-40.865-20.563c-3.318,0.347-6.43,1.129-9.246,2.324c-16.649,7.072-25.706,21.463-24.849,39.482
		c0.882,18.545,5.503,36.289,13.732,52.74c8.591,17.17,17.983,34.336,27.067,50.936c4.435,8.107,9.021,16.486,13.462,24.773
		c7.81,14.57,15.548,30.533,19.263,48.531l0.048,0.291c0.256,2.092,0.585,4.246,0.903,6.328c0.729,4.764,1.48,9.688,1.515,14.668
		l0.009,1.174c0.119,16.426,0.242,33.41-11.501,48.225c-4.856,6.127-10.013,9.398-15.763,10c-0.001,0-0.001,0-0.002,0
		c-4.871,0.508-10.073-1.021-15.464-4.545c-7.88-5.152-17.685-11.562-22.712-22.744C548.596,682.276,548.201,681.397,545.55,681.675
		z"/>
</g>
</svg>
